<mxfile modified="2022-11-15T14:24:50.195Z" host="app.diagrams.net" agent="5.0 (Macintosh)" etag="hmDYsAikTBSFb_I_aeIx" version="20.4.1" type="github">
  <diagram id="WI9T0HZ2pTsCkuznbFz-" name="Page-1">
    <mxGraphModel dx="787" dy="1471" grid="1" gridSize="10" guides="1" tooltips="1" connect="1" arrows="1" fold="1" page="1" pageScale="1" pageWidth="1169" pageHeight="827" math="0" shadow="0">
      <root>
        <mxCell id="0" />
        <mxCell id="1" parent="0" />
        <mxCell id="eVRJy_oy80gk_m6gcZ6G-24" value="&lt;div align=&quot;center&quot;&gt;Guidance&lt;/div&gt;" style="rounded=1;whiteSpace=wrap;html=1;fontColor=none;fillColor=none;verticalAlign=top;align=center;" vertex="1" parent="1">
          <mxGeometry x="640" y="30" width="120" height="180" as="geometry" />
        </mxCell>
        <mxCell id="EK-SHUULudsoQC0ReheS-3" value="合约地址" style="edgeStyle=orthogonalEdgeStyle;rounded=0;orthogonalLoop=1;jettySize=auto;html=1;" parent="1" source="EK-SHUULudsoQC0ReheS-1" target="EK-SHUULudsoQC0ReheS-2" edge="1">
          <mxGeometry relative="1" as="geometry" />
        </mxCell>
        <mxCell id="EK-SHUULudsoQC0ReheS-1" value="智能合约定义集" style="shape=datastore;whiteSpace=wrap;html=1;" parent="1" vertex="1">
          <mxGeometry x="300" y="470" width="60" height="60" as="geometry" />
        </mxCell>
        <mxCell id="EK-SHUULudsoQC0ReheS-5" value="" style="edgeStyle=orthogonalEdgeStyle;rounded=0;orthogonalLoop=1;jettySize=auto;html=1;dashed=1;" parent="1" source="EK-SHUULudsoQC0ReheS-2" target="EK-SHUULudsoQC0ReheS-4" edge="1">
          <mxGeometry relative="1" as="geometry" />
        </mxCell>
        <mxCell id="EK-SHUULudsoQC0ReheS-7" value="交易哈希" style="edgeStyle=orthogonalEdgeStyle;rounded=0;orthogonalLoop=1;jettySize=auto;html=1;" parent="1" source="EK-SHUULudsoQC0ReheS-2" target="EK-SHUULudsoQC0ReheS-6" edge="1">
          <mxGeometry relative="1" as="geometry" />
        </mxCell>
        <mxCell id="EK-SHUULudsoQC0ReheS-2" value="获取交易" style="whiteSpace=wrap;html=1;" parent="1" vertex="1">
          <mxGeometry x="450" y="470" width="120" height="60" as="geometry" />
        </mxCell>
        <mxCell id="EK-SHUULudsoQC0ReheS-4" value="区块链浏览器API" style="shape=parallelogram;perimeter=parallelogramPerimeter;whiteSpace=wrap;html=1;fixedSize=1;" parent="1" vertex="1">
          <mxGeometry x="450" y="380" width="120" height="60" as="geometry" />
        </mxCell>
        <mxCell id="EK-SHUULudsoQC0ReheS-9" value="访问：交易执行轨迹" style="edgeStyle=orthogonalEdgeStyle;rounded=0;orthogonalLoop=1;jettySize=auto;html=1;dashed=1;" parent="1" source="EK-SHUULudsoQC0ReheS-6" target="EK-SHUULudsoQC0ReheS-8" edge="1">
          <mxGeometry relative="1" as="geometry" />
        </mxCell>
        <mxCell id="EK-SHUULudsoQC0ReheS-11" value="&lt;div align=&quot;left&quot;&gt;运行&lt;/div&gt;&lt;div align=&quot;left&quot;&gt;SSTORE&lt;/div&gt;&lt;div align=&quot;left&quot;&gt;CALLER&lt;/div&gt;&lt;div align=&quot;left&quot;&gt;PUSH2 0x08fc&lt;/div&gt;&lt;div align=&quot;left&quot;&gt;CALL&lt;br&gt;&lt;/div&gt;" style="edgeStyle=orthogonalEdgeStyle;rounded=0;orthogonalLoop=1;jettySize=auto;html=1;align=left;" parent="1" source="EK-SHUULudsoQC0ReheS-6" target="EK-SHUULudsoQC0ReheS-10" edge="1">
          <mxGeometry relative="1" as="geometry" />
        </mxCell>
        <mxCell id="EK-SHUULudsoQC0ReheS-6" value="获取交易的执行轨迹" style="whiteSpace=wrap;html=1;" parent="1" vertex="1">
          <mxGeometry x="670" y="470" width="120" height="60" as="geometry" />
        </mxCell>
        <mxCell id="EK-SHUULudsoQC0ReheS-8" value="区块链归档节点" style="shape=parallelogram;perimeter=parallelogramPerimeter;whiteSpace=wrap;html=1;fixedSize=1;" parent="1" vertex="1">
          <mxGeometry x="670" y="380" width="120" height="60" as="geometry" />
        </mxCell>
        <mxCell id="EK-SHUULudsoQC0ReheS-13" value="&lt;div&gt;数据日志实例&lt;/div&gt;&lt;div&gt;call(a1,a2)&lt;/div&gt;&lt;div&gt;call(a2,a1)&lt;br&gt;&lt;/div&gt;" style="edgeStyle=orthogonalEdgeStyle;rounded=0;orthogonalLoop=1;jettySize=auto;html=1;" parent="1" source="EK-SHUULudsoQC0ReheS-10" target="EK-SHUULudsoQC0ReheS-12" edge="1">
          <mxGeometry relative="1" as="geometry" />
        </mxCell>
        <mxCell id="EK-SHUULudsoQC0ReheS-10" value="编码数据日志" style="whiteSpace=wrap;html=1;" parent="1" vertex="1">
          <mxGeometry x="670" y="610" width="120" height="60" as="geometry" />
        </mxCell>
        <mxCell id="EK-SHUULudsoQC0ReheS-16" value="&lt;div&gt;访问结果&lt;/div&gt;&lt;div&gt;《交易内容》&lt;br&gt;&lt;/div&gt;&lt;div&gt;合法/非法&lt;br&gt;&lt;/div&gt;" style="edgeStyle=orthogonalEdgeStyle;rounded=0;orthogonalLoop=1;jettySize=auto;html=1;" parent="1" source="EK-SHUULudsoQC0ReheS-12" target="EK-SHUULudsoQC0ReheS-15" edge="1">
          <mxGeometry relative="1" as="geometry" />
        </mxCell>
        <mxCell id="EK-SHUULudsoQC0ReheS-12" value="访问数据日志进行合法性分析" style="whiteSpace=wrap;html=1;" parent="1" vertex="1">
          <mxGeometry x="450" y="610" width="120" height="60" as="geometry" />
        </mxCell>
        <mxCell id="EK-SHUULudsoQC0ReheS-15" value="非法交易数据集" style="shape=datastore;whiteSpace=wrap;html=1;" parent="1" vertex="1">
          <mxGeometry x="300" y="610" width="60" height="60" as="geometry" />
        </mxCell>
        <mxCell id="eVRJy_oy80gk_m6gcZ6G-3" value="" style="group" vertex="1" connectable="0" parent="1">
          <mxGeometry x="320" y="8" width="95" height="125" as="geometry" />
        </mxCell>
        <mxCell id="eVRJy_oy80gk_m6gcZ6G-1" value="&lt;div&gt;DUP 0x01&lt;/div&gt;&lt;div&gt;PUSH1&lt;/div&gt;&lt;div&gt;PUSH2&lt;/div&gt;&lt;div&gt;POP1&lt;/div&gt;&lt;div&gt;MSTORE&lt;/div&gt;&lt;div&gt;......&lt;br&gt;&lt;/div&gt;" style="whiteSpace=wrap;html=1;align=left;" vertex="1" parent="eVRJy_oy80gk_m6gcZ6G-3">
          <mxGeometry x="15" y="25" width="80" height="100" as="geometry" />
        </mxCell>
        <mxCell id="eVRJy_oy80gk_m6gcZ6G-2" value="Opcode" style="text;html=1;align=center;verticalAlign=middle;resizable=0;points=[];autosize=1;strokeColor=none;fillColor=none;" vertex="1" parent="eVRJy_oy80gk_m6gcZ6G-3">
          <mxGeometry width="70" height="30" as="geometry" />
        </mxCell>
        <mxCell id="eVRJy_oy80gk_m6gcZ6G-7" value="Encode" style="edgeStyle=orthogonalEdgeStyle;rounded=0;orthogonalLoop=1;jettySize=auto;html=1;entryX=-0.033;entryY=0.51;entryDx=0;entryDy=0;entryPerimeter=0;" edge="1" parent="1" source="eVRJy_oy80gk_m6gcZ6G-1" target="eVRJy_oy80gk_m6gcZ6G-8">
          <mxGeometry relative="1" as="geometry">
            <mxPoint x="475" y="83" as="targetPoint" />
          </mxGeometry>
        </mxCell>
        <mxCell id="eVRJy_oy80gk_m6gcZ6G-12" value="import" style="edgeStyle=orthogonalEdgeStyle;rounded=0;orthogonalLoop=1;jettySize=auto;html=1;" edge="1" parent="1" source="eVRJy_oy80gk_m6gcZ6G-8" target="eVRJy_oy80gk_m6gcZ6G-11">
          <mxGeometry relative="1" as="geometry" />
        </mxCell>
        <mxCell id="eVRJy_oy80gk_m6gcZ6G-8" value="&lt;div&gt;[0x00,0x01;&lt;/div&gt;&lt;div&gt;0x02,0x00;&lt;/div&gt;&lt;div&gt;0x03,0x00;&lt;/div&gt;&lt;div&gt;0x08,0x00;&lt;/div&gt;&lt;div&gt;0x0a, 0x00;&lt;/div&gt;&lt;div&gt;......]&lt;/div&gt;" style="text;html=1;align=center;verticalAlign=middle;resizable=0;points=[];autosize=1;strokeColor=none;fillColor=none;" vertex="1" parent="1">
          <mxGeometry x="490" y="33" width="90" height="100" as="geometry" />
        </mxCell>
        <mxCell id="eVRJy_oy80gk_m6gcZ6G-25" value="feed" style="edgeStyle=orthogonalEdgeStyle;rounded=0;orthogonalLoop=1;jettySize=auto;html=1;fontColor=none;" edge="1" parent="1" source="eVRJy_oy80gk_m6gcZ6G-11" target="eVRJy_oy80gk_m6gcZ6G-22">
          <mxGeometry relative="1" as="geometry" />
        </mxCell>
        <mxCell id="eVRJy_oy80gk_m6gcZ6G-11" value="DataSet" style="shape=cylinder3;whiteSpace=wrap;html=1;boundedLbl=1;backgroundOutline=1;size=15;" vertex="1" parent="1">
          <mxGeometry x="670" y="50" width="60" height="65" as="geometry" />
        </mxCell>
        <mxCell id="eVRJy_oy80gk_m6gcZ6G-17" value="output" style="edgeStyle=orthogonalEdgeStyle;rounded=0;orthogonalLoop=1;jettySize=auto;html=1;" edge="1" parent="1" source="eVRJy_oy80gk_m6gcZ6G-14" target="eVRJy_oy80gk_m6gcZ6G-16">
          <mxGeometry relative="1" as="geometry" />
        </mxCell>
        <mxCell id="eVRJy_oy80gk_m6gcZ6G-14" value="&lt;div&gt;Analyzer&lt;br&gt;&lt;/div&gt;" style="ellipse;whiteSpace=wrap;html=1;align=center;" vertex="1" parent="1">
          <mxGeometry x="327.5" y="178" width="95" height="30" as="geometry" />
        </mxCell>
        <mxCell id="eVRJy_oy80gk_m6gcZ6G-15" value="" style="edgeStyle=orthogonalEdgeStyle;rounded=0;orthogonalLoop=1;jettySize=auto;html=1;" edge="1" parent="1" source="eVRJy_oy80gk_m6gcZ6G-1" target="eVRJy_oy80gk_m6gcZ6G-14">
          <mxGeometry relative="1" as="geometry" />
        </mxCell>
        <mxCell id="eVRJy_oy80gk_m6gcZ6G-18" style="edgeStyle=orthogonalEdgeStyle;rounded=0;orthogonalLoop=1;jettySize=auto;html=1;" edge="1" parent="1" source="eVRJy_oy80gk_m6gcZ6G-16">
          <mxGeometry relative="1" as="geometry">
            <mxPoint x="600" y="88" as="targetPoint" />
          </mxGeometry>
        </mxCell>
        <mxCell id="eVRJy_oy80gk_m6gcZ6G-16" value="labels" style="whiteSpace=wrap;html=1;" vertex="1" parent="1">
          <mxGeometry x="500" y="180.5" width="70" height="25" as="geometry" />
        </mxCell>
        <mxCell id="eVRJy_oy80gk_m6gcZ6G-34" value="guide" style="edgeStyle=none;rounded=0;orthogonalLoop=1;jettySize=auto;html=1;fontColor=none;" edge="1" parent="1" source="eVRJy_oy80gk_m6gcZ6G-22" target="eVRJy_oy80gk_m6gcZ6G-32">
          <mxGeometry relative="1" as="geometry" />
        </mxCell>
        <mxCell id="eVRJy_oy80gk_m6gcZ6G-22" value="Statistics Model" style="ellipse;whiteSpace=wrap;html=1;" vertex="1" parent="1">
          <mxGeometry x="650" y="150" width="100" height="45" as="geometry" />
        </mxCell>
        <mxCell id="eVRJy_oy80gk_m6gcZ6G-28" value="Fuzzer" style="rounded=1;whiteSpace=wrap;html=1;fontColor=none;fillColor=none;verticalAlign=top;" vertex="1" parent="1">
          <mxGeometry x="800" y="33" width="180" height="177" as="geometry" />
        </mxCell>
        <mxCell id="eVRJy_oy80gk_m6gcZ6G-31" value="input" style="rounded=0;orthogonalLoop=1;jettySize=auto;html=1;entryX=1;entryY=0.5;entryDx=0;entryDy=0;fontColor=none;" edge="1" parent="1" source="eVRJy_oy80gk_m6gcZ6G-30" target="eVRJy_oy80gk_m6gcZ6G-22">
          <mxGeometry relative="1" as="geometry" />
        </mxCell>
        <mxCell id="eVRJy_oy80gk_m6gcZ6G-33" value="read" style="edgeStyle=none;rounded=0;orthogonalLoop=1;jettySize=auto;html=1;fontColor=none;" edge="1" parent="1" source="eVRJy_oy80gk_m6gcZ6G-30" target="eVRJy_oy80gk_m6gcZ6G-32">
          <mxGeometry relative="1" as="geometry" />
        </mxCell>
        <mxCell id="eVRJy_oy80gk_m6gcZ6G-30" value="Methods" style="shape=cylinder3;whiteSpace=wrap;html=1;boundedLbl=1;backgroundOutline=1;size=15;" vertex="1" parent="1">
          <mxGeometry x="860" y="55" width="60" height="60" as="geometry" />
        </mxCell>
        <mxCell id="eVRJy_oy80gk_m6gcZ6G-36" value="" style="edgeStyle=none;rounded=0;orthogonalLoop=1;jettySize=auto;html=1;fontColor=none;" edge="1" parent="1" source="eVRJy_oy80gk_m6gcZ6G-32" target="eVRJy_oy80gk_m6gcZ6G-35">
          <mxGeometry relative="1" as="geometry" />
        </mxCell>
        <mxCell id="eVRJy_oy80gk_m6gcZ6G-32" value="Selector" style="ellipse;whiteSpace=wrap;html=1;" vertex="1" parent="1">
          <mxGeometry x="840" y="157.5" width="100" height="30" as="geometry" />
        </mxCell>
        <mxCell id="eVRJy_oy80gk_m6gcZ6G-35" value="Selected Methods" style="whiteSpace=wrap;html=1;" vertex="1" parent="1">
          <mxGeometry x="830" y="220" width="120" height="60" as="geometry" />
        </mxCell>
      </root>
    </mxGraphModel>
  </diagram>
</mxfile>
